Coordinates
version=1
nRows=29
nColumns=22
inDegrees=yes

Units are S.I. units (second, meters, Newtons, ...)
If the header above contains a line with 'inDegrees', this indicates whether rotational values are in degrees (yes) or radians (no).

endheader
time	pelvis_tilt	pelvis_list	pelvis_rotation	pelvis_tx	pelvis_ty	pelvis_tz	hip_flexion_r	hip_adduction_r	hip_rotation_r	knee_angle_r	ankle_angle_r	subtalar_angle_r	hip_flexion_l	hip_adduction_l	hip_rotation_l	knee_angle_l	ankle_angle_l	subtalar_angle_l	lumbar_extension	lumbar_bending	lumbar_rotation
      1.51000000	     -7.07014017	     -2.21578155	    -31.12450288	     -0.86685610	      0.86903868	     -0.41801511	     33.61735165	     -1.59577855	     -1.88975279	    -27.59791569	      7.65736181	      3.53854663	     -2.96759118	     -3.54163428	      2.00416191	    -13.87830618	     25.20900182	     -4.81650686	     -3.61581477	      5.40222783	      3.55103548
      1.52000000	     -7.01002658	     -2.17796065	    -30.95108363	     -0.86277669	      0.86764276	     -0.41509907	     33.36217436	     -1.68362718	     -1.90443221	    -25.53258564	      7.32459192	      3.82806893	     -3.20275092	     -3.52232654	      2.11187210	    -14.14706266	     25.56861650	     -4.65876159	     -3.66950349	      5.34321513	      3.40635387
      1.53000000	     -6.93935546	     -2.13317965	    -30.78903250	     -0.85865849	      0.86620503	     -0.41206876	     33.10433643	     -1.77364272	     -1.92640996	    -23.50169431	      6.98331499	      4.21726278	     -3.45179569	     -3.49487166	      2.22215754	    -14.42056216	     25.93774075	     -4.45501821	     -3.73859479	      5.27195295	      3.28275699
      1.54000000	     -6.92355787	     -2.09504016	    -30.63483026	     -0.85450061	      0.86466252	     -0.40890051	     32.88452072	     -1.82034454	     -1.97030209	    -21.49724981	      6.65917246	      4.49966035	     -3.64860559	     -3.51139115	      2.32233475	    -14.72682014	     26.31080095	     -4.34549566	     -3.75947355	      5.24223108	      3.17232348
      1.55000000	     -6.89544259	     -2.05571199	    -30.49668006	     -0.85030072	      0.86309924	     -0.40560245	     32.66325776	     -1.86219404	     -2.01066665	    -19.55627826	      6.33363367	      4.85148052	     -3.87339331	     -3.52464659	      2.42099696	    -15.02317448	     26.68519115	     -4.21008950	     -3.80028866	      5.20504874	      3.08778223
      1.56000000	     -6.86997035	     -2.01124708	    -30.37530048	     -0.84606649	      0.86149356	     -0.40216254	     32.46287015	     -1.89453680	     -2.04696339	    -17.69835210	      6.02252141	      5.25110330	     -4.10920371	     -3.54104873	      2.50949876	    -15.31355213	     27.06017411	     -4.06764823	     -3.84296863	      5.16444104	      3.02463228
      1.57000000	     -6.85596795	     -1.95610355	    -30.27348601	     -0.84178377	      0.85983815	     -0.39858537	     32.29580817	     -1.91844828	     -2.08538515	    -15.93526692	      5.72088005	      5.64728166	     -4.35046251	     -3.55822764	      2.58740121	    -15.58909153	     27.42031106	     -3.94176134	     -3.87412047	      5.12305617	      2.98778565
      1.58000000	     -6.84333164	     -1.89281062	    -30.18898625	     -0.83744816	      0.85815429	     -0.39486058	     32.15364455	     -1.93758435	     -2.13466466	    -14.28296226	      5.43603163	      6.04877104	     -4.61473367	     -3.57474449	      2.65433880	    -15.83714519	     27.76335406	     -3.82375048	     -3.90513381	      5.07507412	      2.97040442
      1.59000000	     -6.80925982	     -1.80996595	    -30.11918822	     -0.83304697	      0.85646223	     -0.39101212	     32.03499821	     -1.97742749	     -2.21071791	    -12.77375145	      5.17608819	      6.50669648	     -4.92259884	     -3.56595788	      2.71321932	    -16.04675675	     28.09599597	     -3.68634516	     -3.95266607	      4.99787076	      2.96671449
      1.60000000	     -6.80014596	     -1.72530965	    -30.06324885	     -0.82855968	      0.85473904	     -0.38699697	     31.94991065	     -1.99548387	     -2.32350264	    -11.38456298	      4.94977634	      6.85390524	     -5.24348509	     -3.57754753	      2.75526327	    -16.21665255	     28.37882355	     -3.58780330	     -3.97382481	      4.93406126	      2.97913803
      1.61000000	     -6.79180181	     -1.63057751	    -30.01530942	     -0.82397335	      0.85301762	     -0.38284289	     31.88831636	     -2.01532630	     -2.48524242	    -10.13655342	      4.75902861	      7.16134697	     -5.60075214	     -3.58763377	      2.79087744	    -16.33233467	     28.60415771	     -3.48782126	     -3.98812200	      4.86516769	      2.99892663
      1.62000000	     -6.76182043	     -1.52247464	    -29.96725970	     -0.81927571	      0.85132172	     -0.37856622	     31.83777062	     -2.05585421	     -2.70383575	     -9.05286565	      4.63543016	      7.47910442	     -6.00716465	     -3.58073183	      2.82283016	    -16.40399759	     28.80329038	     -3.35564719	     -4.01656510	      4.77452355	      3.01520096
      1.63000000	     -6.74032881	     -1.39664341	    -29.91166503	     -0.81447849	      0.84963193	     -0.37415885	     31.81854625	     -2.10556477	     -2.97515298	     -8.12247570	      4.55563408	      7.72638786	     -6.42918522	     -3.57300054	      2.85657450	    -16.42989438	     28.94265980	     -3.21519395	     -4.02538886	      4.67441189	      3.01417048
      1.64000000	     -6.72365081	     -1.23417292	    -29.84178061	     -0.80959058	      0.84794645	     -0.36965448	     31.84168659	     -2.18614297	     -3.29243483	     -7.35434561	      4.49923451	      7.87552541	     -6.84263041	     -3.54203122	      2.91685122	    -16.43900435	     29.02971131	     -3.08169125	     -4.00786851	      4.54299581	      3.00507941
      1.65000000	     -6.70907654	     -1.07573683	    -29.75720666	     -0.80456065	      0.84631690	     -0.36500052	     31.86176426	     -2.26376415	     -3.66483314	     -6.73048738	      4.51576619	      8.01312420	     -7.29026228	     -3.53126759	      2.98275164	    -16.40174030	     29.05819597	     -2.90254843	     -3.98342266	      4.42082388	      2.96993206
      1.66000000	     -6.72991779	     -0.88504835	    -29.66329884	     -0.79942504	      0.84468469	     -0.36019585	     31.93018466	     -2.34771180	     -4.03716869	     -6.24879326	      4.55089312	      8.08366064	     -7.71066388	     -3.52280034	      3.05835517	    -16.33307106	     29.01778026	     -2.73010920	     -3.89801672	      4.28892288	      2.90887507
      1.67000000	     -6.72673797	     -0.70770395	    -29.54287373	     -0.79416877	      0.84317096	     -0.35529841	     31.96156462	     -2.43998915	     -4.47502212	     -5.90235759	      4.56574631	      8.14689644	     -8.14863131	     -3.52844250	      3.13786780	    -16.29757543	     28.95670630	     -2.42307524	     -3.84381482	      4.16201664	      2.83486236
      1.68000000	     -6.77707634	     -0.49289677	    -29.41190232	     -0.78880489	      0.84166536	     -0.35025830	     32.04952764	     -2.53464203	     -4.89125344	     -5.68146997	      4.49514510	      8.12611372	     -8.53301852	     -3.53888841	      3.25100341	    -16.24021913	     28.79452553	     -2.15204299	     -3.70761574	      4.03209468	      2.73715568
      1.69000000	     -6.85620632	     -0.27477690	    -29.27115094	     -0.78332998	      0.84023139	     -0.34507764	     32.13955918	     -2.61440747	     -5.28992955	     -5.56425944	      4.32086704	      8.05847523	     -8.88736614	     -3.57267513	      3.38558351	    -16.19894035	     28.57015186	     -1.89076933	     -3.53652979	      3.92008712	      2.62996995
      1.70000000	     -6.96169945	     -0.08006114	    -29.12331688	     -0.77776270	      0.83889984	     -0.33974393	     32.22695470	     -2.65606974	     -5.67918129	     -5.57421120	      3.98268491	      7.87341679	     -9.21353635	     -3.65818536	      3.49403629	    -16.19935704	     28.31099667	     -1.42023213	     -3.35181800	      3.84934737	      2.51775114
      1.71000000	     -7.10059899	      0.12607435	    -28.96687455	     -0.77207271	      0.83767528	     -0.33427573	     32.30381239	     -2.68806968	     -5.98375993	     -5.64432827	      3.42365005	      7.75779870	     -9.51293377	     -3.75310400	      3.67249038	    -16.18988054	     27.94930190	     -1.22155377	     -3.12274798	      3.79212365	      2.38355094
      1.72000000	     -7.26359456	      0.27782506	    -28.79577495	     -0.76630133	      0.83661657	     -0.32868559	     32.36085668	     -2.66284449	     -6.29678847	     -5.83216242	      2.62111535	      7.45300667	     -9.77656673	     -3.92373619	      3.85167310	    -16.26656122	     27.57840143	     -0.78553479	     -2.90575793	      3.80852708	      2.24432357
      1.73000000	     -7.46527919	      0.41035251	    -28.66835279	     -0.76042505	      0.83572143	     -0.32287350	     32.42162307	     -2.57443301	     -6.47466274	     -6.10239608	      1.60025698	      7.26132023	    -10.03758719	     -4.12665588	      4.04931147	    -16.32423296	     27.03320924	     -0.56408372	     -2.65769389	      3.87137723	      2.15455593
      1.74000000	     -7.67717471	      0.45015411	    -28.53563617	     -0.75446574	      0.83507650	     -0.31691264	     32.44709312	     -2.39840296	     -6.70205842	     -6.48952049	      0.38232441	      6.66866817	    -10.28772043	     -4.43594348	      4.19307064	    -16.47890393	     26.50641858	      0.00683074	     -2.45877703	      4.03520481	      2.06796072
      1.75000000	     -7.90607555	      0.45604659	    -28.43225011	     -0.74842352	      0.83468284	     -0.31081474	     32.47163042	     -2.17201181	     -6.83920257	     -6.95429358	     -0.94386010	      6.17711231	    -10.53104221	     -4.77530104	      4.37915037	    -16.65713459	     25.85411310	      0.37844529	     -2.26941053	      4.25220332	      2.00820273
      1.76000000	     -8.14713133	      0.39707619	    -28.36361056	     -0.74231395	      0.83458128	     -0.30455976	     32.49433744	     -1.86782491	     -6.94099007	     -7.51999180	     -2.24422878	      5.60795809	    -10.77060148	     -5.17669281	      4.56350854	    -16.89032917	     25.10976225	      0.75802141	     -2.11327425	      4.54567183	      1.98490904
      1.77000000	     -8.40023358	      0.28270250	    -28.33500958	     -0.73614317	      0.83477866	     -0.29816166	     32.52706614	     -1.49129820	     -6.99520199	     -8.18522481	     -3.40711149	      4.94444580	    -11.00502749	     -5.62843939	      4.73867412	    -17.16756070	     24.26123001	      1.16032128	     -1.98592681	      4.90895975	      1.99021771
      1.78000000	     -8.66035562	      0.12539558	    -28.35586052	     -0.72993356	      0.83526871	     -0.29160628	     32.58015574	     -1.04819570	     -6.99216955	     -8.96124944	     -4.30050785	      4.19833851	    -11.23237280	     -6.11550371	      4.90867959	    -17.48784014	     23.29558184	      1.58289886	     -1.88621226	      5.32130705	      2.03389175
      1.79000000	     -8.93670531	     -0.06790729	    -28.42314915	     -0.72368782	      0.83603664	     -0.28492932	     32.63960732	     -0.53896588	     -6.92222771	     -9.79162018	     -4.94420806	      3.41862140	    -11.42367043	     -6.63342135	      5.06959882	    -17.87903483	     22.22547148	      2.00239668	     -1.80114447	      5.78374570	      2.12268235
